<svg xmlns="http://www.w3.org/2000/svg" viewBox="0 0 119.665 40">
  <g id="Download_on_the_App_Store_Badge_US-UK_RGB_wht_092917" transform="translate(0 0)">
    <g id="Group_1250" data-name="Group 1250">
      <g id="Group_1248" data-name="Group 1248">
        <path id="Exclusion_1" data-name="Exclusion 1" d="M-4469.865,3330h-100.6c-.375,0-.729,0-1.094,0-.3,0-.6,0-.919-.01a13.508,13.508,0,0,1-2-.177,6.687,6.687,0,0,1-1.9-.631A6.274,6.274,0,0,1-4578,3328a6.217,6.217,0,0,1-1.178-1.615,6.566,6.566,0,0,1-.625-1.9,13.1,13.1,0,0,1-.179-2c-.006-.217-.009-.434-.011-.644v-.019c0-.086,0-.172,0-.259v-23.114c0-.088,0-.175,0-.263v-.018c0-.21,0-.428.011-.641a13.059,13.059,0,0,1,.179-2,6.613,6.613,0,0,1,.625-1.9A6.266,6.266,0,0,1-4578,3292a6.428,6.428,0,0,1,1.618-1.178,6.672,6.672,0,0,1,1.9-.627,13.306,13.306,0,0,1,2-.176h.069c.292-.005.568-.01.851-.011.366,0,.72,0,1.094,0h100.6c.356,0,.725,0,1.083,0,.289,0,.581.006.906.012h.016a13.012,13.012,0,0,1,2,.176,6.8,6.8,0,0,1,1.908.627,6.426,6.426,0,0,1,2.8,2.8,6.6,6.6,0,0,1,.62,1.9,13.506,13.506,0,0,1,.185,2c0,.307,0,.62,0,.922.008.362.008.733.008,1.091v20.929c0,.376,0,.731-.008,1.094,0,.314,0,.611,0,.922a13.55,13.55,0,0,1-.185,2,6.558,6.558,0,0,1-.62,1.9,6.323,6.323,0,0,1-1.182,1.615,6.24,6.24,0,0,1-1.617,1.178,6.805,6.805,0,0,1-1.908.631,13.322,13.322,0,0,1-2,.177c-.3.007-.611.01-.922.01C-4469.14,3330-4469.509,3330-4469.865,3330Zm-101.689-39.125-.9.013a12.538,12.538,0,0,0-1.876.164,5.8,5.8,0,0,0-1.654.544,5.582,5.582,0,0,0-1.4,1.022,5.364,5.364,0,0,0-1.015,1.4,5.755,5.755,0,0,0-.543,1.662,12.419,12.419,0,0,0-.166,1.871c-.006.2-.014.891-.014.9v23.1s.008.7.014.913a12.557,12.557,0,0,0,.167,1.876,5.7,5.7,0,0,0,.544,1.656,5.261,5.261,0,0,0,1.021,1.4,5.39,5.39,0,0,0,1.4,1.017,5.894,5.894,0,0,0,1.656.547,12.63,12.63,0,0,0,1.869.163c.347.008.635.011.9.011h102.773c.267,0,.569,0,.9-.011a12.528,12.528,0,0,0,1.869-.163,5.807,5.807,0,0,0,1.667-.549,5.407,5.407,0,0,0,1.4-1.022,5.462,5.462,0,0,0,1.015-1.386,5.688,5.688,0,0,0,.541-1.67,12.784,12.784,0,0,0,.171-1.853c0-.307,0-.61,0-.93.008-.357.008-.706.008-1.076v-20.929c0-.352,0-.716-.008-1.091,0-.3,0-.608,0-.891a12.934,12.934,0,0,0-.175-1.887,5.715,5.715,0,0,0-.535-1.648,5.571,5.571,0,0,0-2.415-2.421,5.956,5.956,0,0,0-1.671-.547,12.479,12.479,0,0,0-1.859-.163l-.913-.013Z" transform="translate(4580 -3290)"/>
      </g>
      <g id="_Group_" data-name="&lt;Group&gt;">
        <g id="_Group_2" data-name="&lt;Group&gt;">
          <g id="_Group_3" data-name="&lt;Group&gt;">
            <path id="_Path_" data-name="&lt;Path&gt;" d="M25,19.889a5.146,5.146,0,0,1,2.451-4.318,5.268,5.268,0,0,0-4.15-2.244c-1.746-.183-3.439,1.045-4.329,1.045-.907,0-2.277-1.027-3.752-1a5.527,5.527,0,0,0-4.651,2.837c-2.011,3.482-.511,8.6,1.416,11.414.964,1.378,2.09,2.918,3.564,2.863,1.442-.06,1.981-.92,3.722-.92,1.725,0,2.23.92,3.734.885,1.548-.025,2.523-1.384,3.453-2.776a11.4,11.4,0,0,0,1.579-3.216A4.973,4.973,0,0,1,25,19.889Z"/>
            <path id="_Path_2" data-name="&lt;Path&gt;" d="M22.156,11.477a5.067,5.067,0,0,0,1.159-3.63A5.155,5.155,0,0,0,19.98,9.573a4.821,4.821,0,0,0-1.189,3.5A4.263,4.263,0,0,0,22.156,11.477Z"/>
          </g>
        </g>
        <g id="Group_1249" data-name="Group 1249">
          <path id="Path_19" data-name="Path 19" d="M42.3,27.14H37.568L36.432,30.5h-2L38.91,18.078h2.083L45.477,30.5H43.438Zm-4.243-1.549h3.752l-1.85-5.447h-.052Z"/>
          <path id="Path_20" data-name="Path 20" d="M55.159,25.97c0,2.813-1.506,4.621-3.778,4.621a3.069,3.069,0,0,1-2.849-1.584h-.043v4.484H46.631V21.442h1.8v1.506h.034a3.212,3.212,0,0,1,2.883-1.6C53.645,21.348,55.159,23.164,55.159,25.97Zm-1.91,0c0-1.833-.947-3.038-2.393-3.038-1.42,0-2.375,1.23-2.375,3.038,0,1.824.955,3.046,2.375,3.046,1.445,0,2.393-1.2,2.393-3.046Z"/>
          <path id="Path_21" data-name="Path 21" d="M65.125,25.97c0,2.813-1.506,4.621-3.779,4.621A3.069,3.069,0,0,1,58.5,29.007h-.043v4.484H56.6V21.442h1.8v1.506h.034a3.212,3.212,0,0,1,2.883-1.6C63.609,21.348,65.125,23.164,65.125,25.97Zm-1.911,0c0-1.833-.947-3.038-2.393-3.038-1.42,0-2.375,1.23-2.375,3.038,0,1.824.955,3.046,2.375,3.046,1.445,0,2.393-1.2,2.393-3.046Z"/>
          <path id="Path_22" data-name="Path 22" d="M71.709,27.036c.138,1.231,1.334,2.04,2.969,2.04,1.566,0,2.693-.809,2.693-1.919,0-.964-.68-1.541-2.289-1.937l-1.609-.388c-2.28-.551-3.339-1.617-3.339-3.348,0-2.143,1.867-3.614,4.518-3.614,2.625,0,4.424,1.472,4.484,3.614H77.26c-.112-1.239-1.137-1.987-2.634-1.987s-2.521.757-2.521,1.858c0,.878.654,1.395,2.255,1.79l1.368.336c2.548.6,3.605,1.626,3.605,3.442,0,2.323-1.85,3.778-4.793,3.778-2.754,0-4.613-1.421-4.733-3.667Z"/>
          <path id="Path_23" data-name="Path 23" d="M83.346,19.3v2.143h1.722v1.472H83.346v4.991c0,.775.345,1.137,1.1,1.137A5.807,5.807,0,0,0,85.059,29v1.463a5.1,5.1,0,0,1-1.032.086c-1.833,0-2.548-.688-2.548-2.444V22.914H80.163V21.442h1.316V19.3Z"/>
          <path id="Path_24" data-name="Path 24" d="M86.064,25.97c0-2.849,1.678-4.639,4.294-4.639s4.295,1.79,4.295,4.639-1.661,4.639-4.295,4.639S86.064,28.826,86.064,25.97Zm6.7,0c0-1.954-.9-3.107-2.4-3.107s-2.4,1.162-2.4,3.107c0,1.962.9,3.106,2.4,3.106s2.4-1.145,2.4-3.106Z"/>
          <path id="Path_25" data-name="Path 25" d="M96.185,21.442h1.772v1.541H98a2.159,2.159,0,0,1,2.178-1.636,2.866,2.866,0,0,1,.637.069v1.738a2.6,2.6,0,0,0-.835-.112,1.873,1.873,0,0,0-1.937,2.083V30.5H96.185Z"/>
          <path id="Path_26" data-name="Path 26" d="M109.383,27.837c-.25,1.644-1.851,2.771-3.9,2.771-2.634,0-4.269-1.765-4.269-4.6s1.644-4.682,4.19-4.682c2.5,0,4.08,1.721,4.08,4.466v.637h-6.395v.112a2.358,2.358,0,0,0,2.436,2.564,2.048,2.048,0,0,0,2.091-1.273Zm-6.282-2.7h4.526a2.177,2.177,0,0,0-2.221-2.3,2.292,2.292,0,0,0-2.306,2.3Z"/>
        </g>
      </g>
    </g>
    <g id="_Group_4" data-name="&lt;Group&gt;">
      <g id="Group_1251" data-name="Group 1251">
        <path id="Path_27" data-name="Path 27" d="M37.826,8.731A2.64,2.64,0,0,1,40.634,11.7c0,1.906-1.03,3-2.808,3H35.671V8.731ZM36.6,13.854h1.125a1.876,1.876,0,0,0,1.968-2.146,1.881,1.881,0,0,0-1.968-2.134H36.6Z"/>
        <path id="Path_28" data-name="Path 28" d="M41.681,12.444a2.133,2.133,0,1,1,4.247,0,2.134,2.134,0,1,1-4.247,0Zm3.333,0c0-.976-.438-1.547-1.208-1.547s-1.207.571-1.207,1.547.435,1.55,1.207,1.55,1.208-.57,1.208-1.55Z"/>
        <path id="Path_29" data-name="Path 29" d="M51.573,14.7h-.922l-.931-3.316h-.07L48.724,14.7h-.913l-1.241-4.5h.9l.807,3.436h.066l.926-3.436h.853l.926,3.436h.07l.8-3.436h.889Z"/>
        <path id="Path_30" data-name="Path 30" d="M53.854,10.195h.855v.715h.066a1.348,1.348,0,0,1,1.344-.8,1.465,1.465,0,0,1,1.559,1.675V14.7h-.889V12.006c0-.724-.314-1.083-.972-1.083a1.033,1.033,0,0,0-1.075,1.141V14.7h-.889Z"/>
        <path id="Path_31" data-name="Path 31" d="M59.094,8.437h.889V14.7h-.889Z"/>
        <path id="Path_32" data-name="Path 32" d="M61.218,12.444a2.133,2.133,0,1,1,4.248,0,2.134,2.134,0,1,1-4.248,0Zm3.333,0c0-.976-.438-1.547-1.208-1.547s-1.207.571-1.207,1.547.435,1.55,1.207,1.55,1.208-.57,1.208-1.55Z"/>
        <path id="Path_33" data-name="Path 33" d="M66.4,13.424c0-.811.6-1.278,1.675-1.344l1.22-.07v-.389c0-.476-.314-.744-.922-.744-.5,0-.84.182-.938.5h-.86c.091-.773.818-1.27,1.84-1.27,1.129,0,1.766.562,1.766,1.513V14.7h-.855v-.633h-.07a1.515,1.515,0,0,1-1.353.707,1.36,1.36,0,0,1-1.5-1.348ZM69.3,13.04v-.376l-1.1.07c-.62.042-.9.252-.9.649s.352.641.835.641A1.061,1.061,0,0,0,69.3,13.04Z"/>
        <path id="Path_34" data-name="Path 34" d="M71.348,12.444c0-1.423.731-2.324,1.869-2.324a1.484,1.484,0,0,1,1.381.79h.066V8.437h.889V14.7H74.7v-.711h-.07a1.563,1.563,0,0,1-1.414.786C72.072,14.772,71.348,13.871,71.348,12.444Zm.918,0c0,.955.45,1.53,1.2,1.53s1.212-.583,1.212-1.526-.468-1.53-1.212-1.53-1.2.579-1.2,1.526Z"/>
        <path id="Path_35" data-name="Path 35" d="M79.23,12.444a2.133,2.133,0,1,1,4.247,0,2.134,2.134,0,1,1-4.247,0Zm3.333,0c0-.976-.438-1.547-1.208-1.547s-1.207.571-1.207,1.547.435,1.55,1.207,1.55S82.563,13.424,82.563,12.444Z"/>
        <path id="Path_36" data-name="Path 36" d="M84.669,10.195h.855v.715h.066a1.348,1.348,0,0,1,1.344-.8,1.465,1.465,0,0,1,1.559,1.675V14.7h-.889V12.006c0-.724-.314-1.083-.972-1.083a1.033,1.033,0,0,0-1.075,1.141V14.7h-.889Z"/>
        <path id="Path_37" data-name="Path 37" d="M93.515,9.074v1.142h.976v.749h-.976v2.315c0,.472.194.678.637.678a2.966,2.966,0,0,0,.339-.021v.74a2.915,2.915,0,0,1-.483.045c-.988,0-1.382-.348-1.382-1.216V10.964h-.715v-.749h.715V9.074Z"/>
        <path id="Path_38" data-name="Path 38" d="M95.7,8.437h.881v2.481h.07a1.386,1.386,0,0,1,1.373-.807,1.483,1.483,0,0,1,1.551,1.679V14.7h-.89V12.01c0-.719-.335-1.083-.963-1.083a1.052,1.052,0,0,0-1.134,1.142V14.7H95.7Z"/>
        <path id="Path_39" data-name="Path 39" d="M104.761,13.482a1.828,1.828,0,0,1-1.951,1.3,2.045,2.045,0,0,1-2.08-2.324,2.077,2.077,0,0,1,2.076-2.353c1.253,0,2.009.856,2.009,2.27v.31h-3.18v.05a1.19,1.19,0,0,0,1.2,1.29,1.079,1.079,0,0,0,1.071-.546Zm-3.126-1.451h2.274a1.086,1.086,0,0,0-1.108-1.167,1.152,1.152,0,0,0-1.166,1.167Z"/>
      </g>
    </g>
  </g>
</svg>
